# xmcd
#
# Track frame offsets: 
#        150
#        8188
#        16482
#        26978
#        36951
#        46616
#        54076
#        65961
#        74592
#        82438
#        95799
#        107831
#        117896
#        126057
#        135124
#        147772
#        158083
#        167127
#        180058
#        199082
#        205957
#        221090
#        234929
#
# Disc length: 3310 seconds
#
# Revision: 0
# Processed by: cddbd v1.5.2PL0 Copyright (c) Steve Scherf et al.
# Submitted via: ExactAudioCopy v0.99pb3
#
DISCID=460cec17
DTITLE=The Chuck Wagon Gang - Live In Branson
DYEAR=2004
DGENRE=Gospel
TTITLE0=I've Been Changed
TTITLE1=The Church in the Wildwood
TTITLE2=Echos From The Burning Bush
TTITLE3=Jesus Hold My Hand
TTITLE4=If You Believe
TTITLE5=I'll Fly Away
TTITLE6=At Sundown
TTITLE7=Have a Little Talk With Jesus
TTITLE8=When I Looked Up
TTITLE9=The Long Black Train
TTITLE10=I've A Precious Friend
TTITLE11=When I Walk On Streets of Gold
TTITLE12=He Set Me Free
TTITLE13=After Awhile
TTITLE14=The World's Greatest Story
TTITLE15=Hard Trials Will Soon Be Over
TTITLE16=Gettin' Ready To Leave This World
TTITLE17=A Beautiful Life
TTITLE18=Come Unto Me
TTITLE19=Higher
TTITLE20=On The Jericho Road
TTITLE21=Perfect Joy
TTITLE22=God's Gentle People
EXTD=
EXTT0=
EXTT1=
EXTT2=
EXTT3=
EXTT4=
EXTT5=
EXTT6=
EXTT7=
EXTT8=
EXTT9=
EXTT10=
EXTT11=
EXTT12=
EXTT13=
EXTT14=
EXTT15=
EXTT16=
EXTT17=
EXTT18=
EXTT19=
EXTT20=
EXTT21=
EXTT22=
PLAYORDER=
